<?xml version="1.0" encoding="utf-8"?>
<!-- Generator: Adobe Illustrator 19.2.0, SVG Export Plug-In . SVG Version: 6.00 Build 0)  -->
<svg version="1.1" id="Layer_1" xmlns="http://www.w3.org/2000/svg" xmlns:xlink="http://www.w3.org/1999/xlink" x="0px" y="0px"
	 viewBox="0 0 180 120" style="enable-background:new 0 0 180 120;" xml:space="preserve">
<style type="text/css">
	.st0{fill:#FFFFFF;}
</style>
<path class="st0" d="M105.3,111.6h0.9v3.3h0.8v-3.3h0.9v-0.7h-2.7V111.6z M110.3,113.6L110.3,113.6l-0.6-2.7h-1.3v4h0.8v-3.1h0
	l0.7,3.1h0.8l0.8-3.1h0v3.1h0.8v-4H111L110.3,113.6z M81.2,17.5c-0.9-0.5-2.8-0.3-4.6,0c-1.8,0.3-4.2,1.4-4.2,1.4v52.5
	c0,0-5.6-10.1-5.7-26.8c0-15.2,0-22.5,0-22.5s0.1-0.9-0.7-1.4c-0.8-0.5-2.4,0.1-3.9,0.7c-1.5,0.7-4.2,2.2-4.2,2.2
	s-0.4,14.6-0.1,19.1c0.3,4.6,1.4,14.8,1.4,14.8l-2.1,3.7c0,0-2.6-5.2-4-14.1c-1.3-8.9-1.2-16.7-1.2-16.7s0-2.4-0.9-2.8
	c-0.9-0.3-3,1.2-4.1,2.1c-1.1,0.9-3.8,3.3-3.8,3.3s-0.1,5.5,0.5,11.5c0.6,5,1.8,10.1,3,13.7c3,9.8,10,18.6,10,18.6l5.3-7.7
	c0,0,4.2,11.6,6.7,16.7c4.9,9.8,13.4,16.6,13.4,16.6V19.1C81.9,19.1,81.9,17.9,81.2,17.5z M136.3,55.7c3.8-17.2,1.7-31.6,1.7-31.6
	l-11.9-2.4l-0.8-4.2L114.5,15l-1.6-5.7L84.2,5L55.4,9.3l-1.5,5.5l-10.4,2.5l-1.2,4.5l-11.7,2.3c0,0-5,32.9,14.3,60.1
	C57.2,101.8,82,113.9,84.1,115l0.1,0l0.1,0c1.8-1,20.9-10.7,33.8-23.9l0,0l0.3-0.3c3.3,2.4,7.3,3.8,11.7,3.8c11,0,20-9,20-20
	C150,65.8,144.3,58.3,136.3,55.7z M114,86.8L114,86.8c-11.3,12.2-28.2,21.5-29.8,22.3l-0.1,0l-0.1,0c-1.9-1-23.9-13.1-34.4-28
	c-16.5-23.5-14-52.1-14-52.1l9.4-1.9l1.2-4.4l11.1-2.8l1.3-5.5l25.4-3.8l0.1,0l0.1,0l25.4,3.8l1.3,5.5l11.1,2.8l1.2,4.4l9.4,1.9
	c0,0,1,11.3-2.4,25.5c0,0,0,0,0,0.1c0,0-0.1,0-0.1,0c-4.9,0-9.3,1.7-12.8,4.6c-1.6-4.4-5.1-6.9-5.1-6.9s11.4-6.1,11.4-13.3
	C123.7,29,100.1,19.4,96,18.4c-3.4-0.8-7.7-1.7-9-0.9c-0.6,0.3-0.6,1-0.6,1v83.8c0,0,9.8-4.8,18.1-14.3c1.3-1.5,3.9-4.2,6.4-7.5
	c0.7,2.2,1.8,4.3,3.1,6.1L114,86.8z M96,51.6v-24c0,0,16.4,4.7,16.6,11C112.9,45.5,96,51.6,96,51.6z M107.9,64.3
	c-0.1,6.4-11.8,19.6-11.8,19.6V60.9c0,0,4.5-2.5,6.7-2.4C103.5,58.5,108,57.9,107.9,64.3z M138,83.3h-5.2l-4.6-12.3h-3.7v12.3h-4.1
	V70.9h-3.9c0.3-0.9,0.6-1.9,0.9-2.9c0-0.2,0.1-0.5,0.1-0.7h14l3.9,11.5l3.9-11.5h4.6L138,83.3z"/>
</svg>
